<svg width="18" height="18" viewBox="0 0 18 18" fill="none" xmlns="http://www.w3.org/2000/svg">
<path d="M9.00008 0.666687C9.46032 0.666687 9.83341 1.03978 9.83341 1.50002V2.33335C9.83341 2.79359 9.46032 3.16669 9.00008 3.16669C8.53984 3.16669 8.16675 2.79359 8.16675 2.33335V1.50002C8.16675 1.03978 8.53984 0.666687 9.00008 0.666687ZM14.8927 3.10746C15.2181 3.43289 15.2181 3.96053 14.8927 4.28597L14.3034 4.87522C13.978 5.20066 13.4503 5.20066 13.1249 4.87522C12.7995 4.54979 12.7995 4.02215 13.1249 3.69671L13.7142 3.10746C14.0396 2.78202 14.5672 2.78202 14.8927 3.10746ZM3.10752 3.10746C3.43296 2.78202 3.96059 2.78202 4.28603 3.10746L4.87529 3.69671C5.20072 4.02215 5.20072 4.54979 4.87529 4.87523C4.54985 5.20066 4.02221 5.20066 3.69677 4.87523L3.10752 4.28597C2.78208 3.96053 2.78208 3.4329 3.10752 3.10746ZM9.00008 5.66669C7.15913 5.66669 5.66675 7.15907 5.66675 9.00002C5.66675 10.841 7.15913 12.3334 9.00008 12.3334C10.841 12.3334 12.3334 10.841 12.3334 9.00002C12.3334 7.15907 10.841 5.66669 9.00008 5.66669ZM4.00008 9.00002C4.00008 6.2386 6.23866 4.00002 9.00008 4.00002C11.7615 4.00002 14.0001 6.2386 14.0001 9.00002C14.0001 11.7614 11.7615 14 9.00008 14C6.23866 14 4.00008 11.7614 4.00008 9.00002ZM0.666748 9.00002C0.666748 8.53978 1.03984 8.16669 1.50008 8.16669H2.33341C2.79365 8.16669 3.16675 8.53978 3.16675 9.00002C3.16675 9.46026 2.79365 9.83335 2.33341 9.83335H1.50008C1.03984 9.83335 0.666748 9.46026 0.666748 9.00002ZM14.8334 9.00002C14.8334 8.53978 15.2065 8.16669 15.6667 8.16669H16.5001C16.9603 8.16669 17.3334 8.53978 17.3334 9.00002C17.3334 9.46026 16.9603 9.83335 16.5001 9.83335H15.6667C15.2065 9.83335 14.8334 9.46026 14.8334 9.00002ZM3.69678 13.1248C4.02221 12.7994 4.54985 12.7994 4.87529 13.1248C5.20072 13.4502 5.20072 13.9779 4.87529 14.3033L4.28603 14.8926C3.96059 15.218 3.43296 15.218 3.10752 14.8926C2.78208 14.5671 2.78208 14.0395 3.10752 13.7141L3.69678 13.1248ZM13.1249 14.3033C12.7995 13.9779 12.7995 13.4502 13.1249 13.1248C13.4503 12.7994 13.978 12.7994 14.3034 13.1248L14.8927 13.7141C15.2181 14.0395 15.2181 14.5671 14.8927 14.8926C14.5672 15.218 14.0396 15.218 13.7142 14.8926L13.1249 14.3033ZM9.00008 14.8334C9.46032 14.8334 9.83341 15.2064 9.83341 15.6667V16.5C9.83341 16.9603 9.46032 17.3334 9.00008 17.3334C8.53984 17.3334 8.16675 16.9603 8.16675 16.5V15.6667C8.16675 15.2064 8.53984 14.8334 9.00008 14.8334Z" fill="white"/>
</svg>
