<svg width="12" height="8" viewBox="0 0 12 8" fill="none" xmlns="http://www.w3.org/2000/svg">
<path d="M0.666748 0.666606C0.666748 0.298416 0.965225 -6.10352e-05 1.33341 -6.10352e-05H2.00008C2.36827 -6.10352e-05 2.66675 0.298416 2.66675 0.666606C2.66675 1.0348 2.36827 1.33327 2.00008 1.33327H1.33341C0.965225 1.33327 0.666748 1.0348 0.666748 0.666606ZM4.00008 0.666606C4.00008 0.298416 4.29856 -6.10352e-05 4.66675 -6.10352e-05H10.6667C11.0349 -6.10352e-05 11.3334 0.298416 11.3334 0.666606C11.3334 1.0348 11.0349 1.33327 10.6667 1.33327H4.66675C4.29856 1.33327 4.00008 1.0348 4.00008 0.666606ZM0.666748 3.99994C0.666748 3.63175 0.965225 3.33327 1.33341 3.33327H2.00008C2.36827 3.33327 2.66675 3.63175 2.66675 3.99994C2.66675 4.36813 2.36827 4.66661 2.00008 4.66661H1.33341C0.965225 4.66661 0.666748 4.36813 0.666748 3.99994ZM4.00008 3.99994C4.00008 3.63175 4.29856 3.33327 4.66675 3.33327H10.6667C11.0349 3.33327 11.3334 3.63175 11.3334 3.99994C11.3334 4.36813 11.0349 4.66661 10.6667 4.66661H4.66675C4.29856 4.66661 4.00008 4.36813 4.00008 3.99994ZM0.666748 7.33327C0.666748 6.96508 0.965225 6.66661 1.33341 6.66661H2.00008C2.36827 6.66661 2.66675 6.96508 2.66675 7.33327C2.66675 7.70146 2.36827 7.99994 2.00008 7.99994H1.33341C0.965225 7.99994 0.666748 7.70146 0.666748 7.33327ZM4.00008 7.33327C4.00008 6.96508 4.29856 6.66661 4.66675 6.66661H10.6667C11.0349 6.66661 11.3334 6.96508 11.3334 7.33327C11.3334 7.70146 11.0349 7.99994 10.6667 7.99994H4.66675C4.29856 7.99994 4.00008 7.70146 4.00008 7.33327Z" fill="white"/>
</svg>
