<svg width="22" height="22" viewBox="0 0 22 22" fill="none" xmlns="http://www.w3.org/2000/svg">
<g opacity="0.5">
<path d="M8.25008 4.58333C7.74382 4.58333 7.33341 4.99374 7.33341 5.5C7.33341 6.00626 7.74382 6.41667 8.25008 6.41667C8.75634 6.41667 9.16675 6.00626 9.16675 5.5C9.16675 4.99374 8.75634 4.58333 8.25008 4.58333ZM5.65656 4.58333C6.03408 3.51524 7.05271 2.75 8.25008 2.75C9.44745 2.75 10.4661 3.51524 10.8436 4.58333H17.4167C17.923 4.58333 18.3334 4.99374 18.3334 5.5C18.3334 6.00626 17.923 6.41667 17.4167 6.41667H10.8436C10.4661 7.48476 9.44745 8.25 8.25008 8.25C7.05271 8.25 6.03408 7.48476 5.65656 6.41667H4.58341C4.07715 6.41667 3.66675 6.00626 3.66675 5.5C3.66675 4.99374 4.07715 4.58333 4.58341 4.58333H5.65656ZM13.7501 10.0833C13.2438 10.0833 12.8334 10.4937 12.8334 11C12.8334 11.5063 13.2438 11.9167 13.7501 11.9167C14.2563 11.9167 14.6667 11.5063 14.6667 11C14.6667 10.4937 14.2563 10.0833 13.7501 10.0833ZM11.1566 10.0833C11.5341 9.01524 12.5527 8.25 13.7501 8.25C14.9474 8.25 15.9661 9.01524 16.3436 10.0833H17.4167C17.923 10.0833 18.3334 10.4937 18.3334 11C18.3334 11.5063 17.923 11.9167 17.4167 11.9167H16.3436C15.9661 12.9848 14.9474 13.75 13.7501 13.75C12.5527 13.75 11.5341 12.9848 11.1566 11.9167H4.58341C4.07715 11.9167 3.66675 11.5063 3.66675 11C3.66675 10.4937 4.07715 10.0833 4.58341 10.0833H11.1566ZM8.25008 15.5833C7.74382 15.5833 7.33341 15.9937 7.33341 16.5C7.33341 17.0063 7.74382 17.4167 8.25008 17.4167C8.75634 17.4167 9.16675 17.0063 9.16675 16.5C9.16675 15.9937 8.75634 15.5833 8.25008 15.5833ZM5.65656 15.5833C6.03408 14.5152 7.05271 13.75 8.25008 13.75C9.44745 13.75 10.4661 14.5152 10.8436 15.5833H17.4167C17.923 15.5833 18.3334 15.9937 18.3334 16.5C18.3334 17.0063 17.923 17.4167 17.4167 17.4167H10.8436C10.4661 18.4848 9.44745 19.25 8.25008 19.25C7.05271 19.25 6.03408 18.4848 5.65656 17.4167H4.58341C4.07715 17.4167 3.66675 17.0063 3.66675 16.5C3.66675 15.9937 4.07715 15.5833 4.58341 15.5833H5.65656Z" fill="white"/>
</g>
</svg>
